<svg xmlns="http://www.w3.org/2000/svg" width="136" height="26" viewBox="0 0 136 26" fill="none">
  <path d="M68.434 16.7663C68.434 14.992 68.761 13.4569 69.415 12.161C70.0909 10.8452 71.0065 9.84842 72.162 9.17058C73.3175 8.47282 74.6147 8.12393 76.0536 8.12393C77.2527 8.12393 78.2882 8.3532 79.1603 8.81173C80.0323 9.25033 80.6973 9.85838 81.1551 10.6359V8.33326H88.3823V25.1993H81.1551V22.8967C80.6973 23.6742 80.0323 24.2922 79.1603 24.7507C78.2882 25.1893 77.2527 25.4086 76.0536 25.4086C74.6147 25.4086 73.3175 25.0697 72.162 24.3919C71.0065 23.6941 70.0909 22.6973 69.415 21.4015C68.761 20.0857 68.434 18.5406 68.434 16.7663ZM81.1551 16.7663C81.1551 15.8692 80.9044 15.1714 80.403 14.673C79.9015 14.1746 79.2584 13.9254 78.4735 13.9254C77.6887 13.9254 77.0455 14.1746 76.5441 14.673C76.0427 15.1714 75.792 15.8692 75.792 16.7663C75.792 17.6634 76.0427 18.3612 76.5441 18.8596C77.0455 19.358 77.6887 19.6072 78.4735 19.6072C79.2584 19.6072 79.9015 19.358 80.403 18.8596C80.9044 18.3612 81.1551 17.6634 81.1551 16.7663Z" fill="white"/>
  <path d="M59.121 25.1994L54.5754 18.4709V25.1994H47.3156V3.07016H54.5754V14.6431L59.1864 8.33332H67.6236L60.7234 16.8261L67.7871 25.1994H59.121Z" fill="white"/>
  <path d="M40.4394 6.98758C39.1749 6.98758 38.1612 6.67857 37.3981 6.06055C36.6351 5.44252 36.2535 4.66501 36.2535 3.72801C36.2535 2.77107 36.6351 1.98359 37.3981 1.36557C38.1612 0.72761 39.1749 0.40863 40.4394 0.40863C41.6821 0.40863 42.685 0.72761 43.448 1.36557C44.2111 1.98359 44.5926 2.77107 44.5926 3.72801C44.5926 4.66501 44.2111 5.44252 43.448 6.06055C42.685 6.67857 41.6821 6.98758 40.4394 6.98758ZM44.0367 8.33328V25.1993H36.7768V8.33328H44.0367Z" fill="white"/>
  <path d="M34 0.00439453L28.7038 25.0044H19.6808L17 10.8095L14.3192 25.0044H5.29615L0 0.00439453H7.81346L9.90577 15.753L13.0442 0.00439453H20.9558L24.0942 15.753L26.1865 0.00439453H34Z" fill="white"/>
  <path d="M98.7903 5.56738V9.64539H106.773V14.9291H98.7903V19.4326H107.837V25H91.8369V0H107.837V5.56738H98.7903Z" fill="#0CA8B9"/>
  <path d="M125.458 13.209L120.42 8.96371L109.884 25.0014H118.129L125.458 13.209Z" fill="url(#paint0_linear_1032_3314)"/>
  <path d="M109.426 0.00146484H118.129L135.994 25.0015H127.29L109.426 0.00146484Z" fill="#0CA8B9"/>
  <path d="M135.535 0.00146484H127.29L124.084 5.05333L128.426 10.8505L135.535 0.00146484Z" fill="url(#paint1_linear_1032_3314)"/>
  <defs>
    <linearGradient id="paint0_linear_1032_3314" x1="117.671" y1="8.96371" x2="117.671" y2="25.0014" gradientUnits="userSpaceOnUse">
      <stop stop-color="#054B53"/>
      <stop offset="0.852958" stop-color="#0CA8B9"/>
    </linearGradient>
    <linearGradient id="paint1_linear_1032_3314" x1="129.81" y1="0.00146484" x2="129.81" y2="10.8505" gradientUnits="userSpaceOnUse">
      <stop offset="0.316888" stop-color="#0CA8B9"/>
      <stop offset="1" stop-color="#054B53"/>
    </linearGradient>
  </defs>
</svg>